# xmcd CD database file
#
# Track frame offsets:
#	150
#	21285
#	40110
#	61250
#
# Disc length: 1059 seconds
#
# Revision: 0
# Processed by: cddbd v1.5PL3 Copyright (c) Steve Scherf et al.
# Submitted via: CDex 1.51
#
DISCID=2a042104
DTITLE=七緒香 - マルタナの丘
DYEAR=2000
DGENRE=JPop
TTITLE0=マルタナの丘
TTITLE1=感情のしっぽ
TTITLE2=マルタナの丘 ORIGINAL KARAOKE
TTITLE3=感情のしっぽ ORIGINAL KARAOKE
EXTD=YEAR: 2000
EXTT0=
EXTT1=
EXTT2=
EXTT3=
PLAYORDER=
